<?xml version="1.0" encoding="utf-8"?>
<!-- Generator: Adobe Illustrator 16.0.0, SVG Export Plug-In . SVG Version: 6.00 Build 0)  -->
<!DOCTYPE svg PUBLIC "-//W3C//DTD SVG 1.1//EN" "http://www.w3.org/Graphics/SVG/1.1/DTD/svg11.dtd">
<svg version="1.1" id="Layer_1" xmlns="http://www.w3.org/2000/svg" xmlns:xlink="http://www.w3.org/1999/xlink" x="0px" y="0px"
	 width="381.581px" height="350px" viewBox="0 0 381.581 350" enable-background="new 0 0 381.581 350" xml:space="preserve">
<path fill="#88C440" d="M172.08,618.553c0,0-68.359,1.68-102.324,12.855c0,0-3.194,12.511,102.324,18.725"/>
<ellipse fill="#FFFFFF" cx="191" cy="538.666" rx="127.695" ry="24"/>
<ellipse fill="#FFFFFF" cx="191" cy="619.666" rx="127.695" ry="24"/>
<path fill="#3D3D3D" d="M217.582,110.637c-6.051,0-7.582,5.074-7.582,7.084c57.799,1.352,102,8.769,102,17.717
	c0,9.905-54.174,17.938-121,17.938c-66.827,0-121-8.032-121-17.938c0-8.944,44.165-16.359,101.93-17.715
	c-0.261-2.006-1.516-7.082-7.563-7.086C106.534,112.802,63,121.915,63,132.829v38.985v6.375v38.985
	c0,10.915,43.534,20.026,101.367,22.188c5.298-0.002,6.915-3.896,7.41-6.213C114.087,231.783,70,224.373,70,215.438
	c0-9.906,54.173-17.938,121-17.938c66.826,0,121,8.031,121,17.938c0,8.944-44.174,16.36-101.946,17.716
	c0.272,2.316,1.691,6.208,6.946,6.208v0.002c58-2.159,102-11.271,102-22.189v-38.985v-6.375v-38.985
	C319,121.912,275.439,112.797,217.582,110.637z"/>
</svg>
