<?xml version="1.0" encoding="utf-8"?>
<!-- Generator: Adobe Illustrator 16.0.0, SVG Export Plug-In . SVG Version: 6.00 Build 0)  -->
<!DOCTYPE svg PUBLIC "-//W3C//DTD SVG 1.1//EN" "http://www.w3.org/Graphics/SVG/1.1/DTD/svg11.dtd">
<svg version="1.1" id="Layer_1" xmlns="http://www.w3.org/2000/svg" xmlns:xlink="http://www.w3.org/1999/xlink" x="0px" y="0px"
	 width="381.582px" height="350px" viewBox="0 0 381.582 350" enable-background="new 0 0 381.582 350" xml:space="preserve">
<g>
	<path fill="#BF2521" d="M107.362,141.41c8.445-1.365,16.892-2.72,25.326-4.149c0.649-0.11,1.397-0.621,1.781-1.167
		c4.902-6.988,10.84-12.917,17.832-17.813c0.536-0.375,1.004-1.139,1.113-1.788c1.41-8.378,2.751-16.768,4.099-25.156
		c0.053-0.328,0.007-0.671,0.007-1.278c-24.2,10.213-41.194,27.2-51.318,51.357C106.75,141.416,107.063,141.458,107.362,141.41z"/>
	<path fill="#BF2521" d="M164.494,126.15c5.351,4.59,10.534,9.372,15.79,14.073c3.541,3.168,7.094,6.321,10.662,9.498
		c0.384-0.25,0.671-0.389,0.898-0.593c8.904-7.961,17.817-15.91,26.665-23.935c0.585-0.53,0.983-1.681,0.891-2.476
		c-0.664-5.668-1.366-11.337-2.267-16.971c-1.764-11.05-4.175-21.938-8.378-32.37c-0.685-1.7-1.57-2.218-3.361-2.202
		c-9.722,0.089-19.444,0.08-29.166,0.004c-1.581-0.012-2.336,0.48-2.951,1.946c-3.088,7.356-5.195,15.011-6.62,22.815
		c-1.549,8.484-2.613,17.056-3.91,25.586C162.458,123.42,162.929,124.808,164.494,126.15z"/>
	<path fill="#BF2521" d="M229.965,118.387c6.86,4.854,12.72,10.687,17.576,17.553c0.472,0.667,1.455,1.214,2.277,1.35
		c5.756,0.946,11.535,1.737,17.297,2.645c2.832,0.447,5.644,1.038,8.861,1.637c-10.293-24.455-27.354-41.449-51.458-51.531
		c1.422,9.113,2.769,17.875,4.198,26.622C228.821,117.295,229.41,117.994,229.965,118.387z"/>
	<path fill="#BF2521" d="M141.998,201.786c0.815-1.126,1.834-2.106,2.766-3.148c7.024-7.855,14.048-15.711,21.167-23.672
		c-0.316-0.407-0.495-0.667-0.704-0.902c-7.912-8.855-15.802-17.73-23.788-26.519c-0.589-0.648-1.908-1.038-2.814-0.93
		c-6.864,0.821-13.733,1.656-20.557,2.757c-10.042,1.619-19.884,4.057-29.311,7.982c-0.937,0.39-1.534,0.781-1.525,2.026
		c0.064,10.29,0.057,20.581,0.007,30.87c-0.006,1.105,0.416,1.605,1.352,1.951c2.199,0.814,4.359,1.742,6.578,2.495
		c13.969,4.737,28.489,6.746,43.037,8.606C139.78,203.503,141.016,203.142,141.998,201.786z"/>
	<path fill="#BF2521" d="M152.192,231.453c-6.933-4.862-12.827-10.744-17.691-17.682c-0.406-0.577-1.233-1.08-1.936-1.198
		c-3.811-0.646-7.654-1.101-11.467-1.733c-4.867-0.807-9.716-1.722-14.914-2.649c4.805,11.973,11.564,22.282,20.489,31.183
		c8.881,8.856,19.101,15.613,30.678,20.21c-1.333-9.038-2.609-17.815-3.963-26.581C153.301,232.434,152.711,231.817,152.192,231.453
		z"/>
	<path fill="#BF2521" d="M275.14,208.243c-8.633,1.435-17.267,2.861-25.889,4.353c-0.583,0.101-1.245,0.583-1.593,1.083
		c-4.881,7.008-10.838,12.919-17.808,17.843c-0.577,0.407-1.053,1.256-1.17,1.965c-0.674,4.069-1.153,8.17-1.835,12.239
		c-0.771,4.601-1.687,9.177-2.61,14.151c24.471-10.194,41.55-27.279,51.733-51.639C275.499,208.238,275.314,208.213,275.14,208.243z
		"/>
	<path fill="#BF2521" d="M294.764,160.2c0.018-1.767-0.577-2.566-2.167-3.196c-15.876-6.291-32.577-8.655-49.401-10.405
		c-0.872-0.091-2.103,0.503-2.725,1.183c-5.534,6.042-10.971,12.175-16.433,18.284c-2.615,2.926-5.226,5.858-7.896,8.854
		c0.582,0.656,1.04,1.175,1.502,1.691c7.416,8.283,14.885,16.521,22.198,24.894c1.365,1.563,2.718,2.031,4.616,1.749
		c6.157-0.914,12.339-1.667,18.475-2.697c10.092-1.694,20.01-4.09,29.557-7.884c1.636-0.65,2.296-1.453,2.276-3.302
		C294.664,179.646,294.668,169.923,294.764,160.2z"/>
	<path fill="#BF2521" d="M218.127,224.161c-2.826-2.356-5.508-4.89-8.252-7.346c-6.244-5.586-12.492-11.168-18.777-16.788
		c-0.443,0.376-0.837,0.694-1.213,1.028c-8.43,7.528-16.804,15.12-25.334,22.532c-1.709,1.485-2.057,2.989-1.774,4.983
		c0.896,6.344,1.599,12.721,2.67,19.035c1.711,10.077,4.011,20.017,7.995,29.496c0.551,1.313,1.24,1.733,2.666,1.722
		c9.971-0.07,19.942-0.061,29.915-0.004c1.277,0.007,1.981-0.312,2.359-1.572c2.17-7.214,4.882-14.311,6.465-21.649
		c2.002-9.282,3.096-18.76,4.586-28.153C219.647,226.088,219.255,225.101,218.127,224.161z"/>
</g>
<image overflow="visible" width="580" height="580" xlink:href="EDF63540.jpg"  transform="matrix(1 0 0 1 -7886 -7796)">
</image>
</svg>
