<?xml version="1.0" encoding="utf-8"?>
<!-- Generator: Adobe Illustrator 16.0.0, SVG Export Plug-In . SVG Version: 6.00 Build 0)  -->
<!DOCTYPE svg PUBLIC "-//W3C//DTD SVG 1.1//EN" "http://www.w3.org/Graphics/SVG/1.1/DTD/svg11.dtd">
<svg version="1.1" id="Layer_1" xmlns="http://www.w3.org/2000/svg" xmlns:xlink="http://www.w3.org/1999/xlink" x="0px" y="0px"
	 width="380px" height="260px" viewBox="0 0 380 260" enable-background="new 0 0 380 260" xml:space="preserve">
<rect x="68.563" y="31.29" fill="#EEF9FE" width="276.901" height="169.14"/>
<rect x="36.692" y="120.597" fill="#EEF9FE" width="58.448" height="115.012"/>
<polyline fill="none" stroke="#F5AC23" stroke-width="7" stroke-linecap="round" stroke-linejoin="round" stroke-miterlimit="10" points="
	121.978,155.775 121.978,60.608 292.92,60.608 292.92,155.775 "/>
<g id="computer">
	
		<polyline id="outer_comp_line" fill="none" stroke="#333333" stroke-width="7" stroke-linecap="round" stroke-linejoin="round" stroke-miterlimit="10" points="
		69.433,119.723 69.433,31.29 345.465,31.29 345.465,200.43 95.141,200.43 	"/>
	
		<polyline id="bottom_screen_line" fill="none" stroke="#333333" stroke-width="7" stroke-linecap="round" stroke-linejoin="round" stroke-miterlimit="10" points="
		344.789,155.775 95.794,155.775 95.794,155.775 	"/>
	<circle id="power_circle" fill="#333333" cx="209.473" cy="178.24" r="6.315"/>
	
		<rect id="two_stand_line" x="193.918" y="200.43" fill="none" stroke="#333333" stroke-width="7" stroke-linecap="round" stroke-linejoin="round" stroke-miterlimit="10" width="31.123" height="35.18"/>
	
		<line id="stand_line" fill="none" stroke="#333333" stroke-width="7" stroke-linecap="round" stroke-linejoin="round" stroke-miterlimit="10" x1="168.884" y1="235.607" x2="248.717" y2="235.607"/>
</g>
<g id="phone">
	
		<polygon id="case_line" fill="none" stroke="#333333" stroke-width="7" stroke-linecap="round" stroke-linejoin="round" stroke-miterlimit="10" points="
		95.141,235.607 34.252,235.607 34.252,120.597 64.198,120.597 95.141,120.597 	"/>
	<circle id="circle_power" fill="#333333" cx="64.501" cy="223.653" r="6.314"/>
</g>
<line fill="none" stroke="#F5AC23" stroke-width="7" stroke-linecap="round" stroke-linejoin="round" stroke-miterlimit="10" x1="121.978" y1="75.943" x2="292.92" y2="75.943"/>
<line fill="none" stroke="#F5AC23" stroke-width="7" stroke-linecap="round" stroke-linejoin="round" stroke-miterlimit="10" x1="168.26" y1="89.865" x2="248.092" y2="89.865"/>
<line fill="none" stroke="#333333" stroke-width="7" stroke-linecap="round" stroke-linejoin="round" stroke-miterlimit="10" x1="34.252" y1="130.93" x2="94.469" y2="130.93"/>
<line fill="none" stroke="#F5AC23" stroke-width="7" stroke-linecap="round" stroke-linejoin="round" stroke-miterlimit="10" x1="45.621" y1="141.645" x2="83.771" y2="141.645"/>
<rect x="98.5" y="191.04" fill="#C0DEF2" width="243.584" height="6.086"/>
<rect x="335.998" y="159.25" fill="#C0DEF2" width="6.086" height="37.876"/>
<rect x="98.5" y="159.25" fill="#C0DEF2" width="6.087" height="37.876"/>
<rect x="98.604" y="124.078" fill="#C0DEF2" width="6.088" height="28.216"/>
<rect x="85.864" y="215.061" fill="#C0DEF2" width="6.01" height="17.033"/>
<rect x="85.864" y="124.078" fill="#C0DEF2" width="6.01" height="3.344"/>
<rect x="284.916" y="64.125" fill="#EDD8BA" width="4.807" height="8.281"/>
<rect x="239.486" y="141.104" fill="#EDD8BA" width="48.758" height="8.25"/>
<polygon fill="#EDD8BA" points="225.352,105.31 225.352,141.104 188.238,141.104 188.238,149.354 225.352,149.354 233.289,149.354 
	233.289,141.104 233.289,105.31 "/>
<polygon fill="#EDD8BA" points="174.266,105.31 174.266,141.104 137.476,141.104 137.476,149.354 174.266,149.354 182.134,149.354 
	182.134,141.104 182.134,105.31 "/>
<polygon fill="#EDD8BA" points="82.412,153.846 82.412,189.639 45.621,189.639 45.621,197.891 82.412,197.891 90.28,197.891 
	90.28,189.639 90.28,153.846 "/>
<rect x="125.484" y="78.848" fill="#EDD8BA" width="161.836" height="3.305"/>
<rect x="296.396" y="63.921" fill="#EDD8BA" width="4.805" height="88.371"/>
<g>
	
		<rect x="239.486" y="103.492" fill="none" stroke="#F5AC23" stroke-width="7" stroke-linecap="round" stroke-linejoin="round" stroke-miterlimit="10" width="38.152" height="38.15"/>
</g>
<path fill="#EDD8BA" d="M285.025,78.848V99.62c0,4.683-2.961,5.023-3.623,5.041h-0.293v40.225h3.916v7.406h4.697V78.848H285.025z"/>
<g>
	
		<rect x="188.373" y="103.492" fill="none" stroke="#F5AC23" stroke-width="7" stroke-linecap="round" stroke-linejoin="round" stroke-miterlimit="10" width="38.151" height="38.15"/>
</g>
<g>
	
		<rect x="136.994" y="103.492" fill="none" stroke="#F5AC23" stroke-width="7" stroke-linecap="round" stroke-linejoin="round" stroke-miterlimit="10" width="38.151" height="38.15"/>
</g>
<g>
	
		<rect x="45.621" y="152.366" fill="none" stroke="#F5AC23" stroke-width="7" stroke-linecap="round" stroke-linejoin="round" stroke-miterlimit="10" width="38.149" height="38.151"/>
</g>
<polyline fill="none" stroke="#F5AC23" stroke-width="7" stroke-linecap="round" stroke-linejoin="round" stroke-miterlimit="10" points="
	45.621,209.479 45.621,200.43 83.771,200.43 83.771,209.479 "/>
<rect x="87.266" y="202.372" fill="#EDD8BA" width="3.015" height="5.926"/>
<line fill="none" stroke="#333333" stroke-width="7" stroke-linecap="round" stroke-linejoin="round" stroke-miterlimit="10" x1="34.252" y1="211.583" x2="94.469" y2="211.583"/>
</svg>
