<?xml version="1.0" encoding="utf-8"?>
<!-- Generator: Adobe Illustrator 16.0.0, SVG Export Plug-In . SVG Version: 6.00 Build 0)  -->
<!DOCTYPE svg PUBLIC "-//W3C//DTD SVG 1.1//EN" "http://www.w3.org/Graphics/SVG/1.1/DTD/svg11.dtd">
<svg version="1.1" id="Layer_1" xmlns="http://www.w3.org/2000/svg" xmlns:xlink="http://www.w3.org/1999/xlink" x="0px" y="0px"
	 width="380px" height="260px" viewBox="0 0 380 260" enable-background="new 0 0 380 260" xml:space="preserve">
<path fill="none" stroke="#F4AC23" stroke-width="7" stroke-linecap="round" stroke-linejoin="round" stroke-miterlimit="10" stroke-dasharray="16,15,3,0" d="
	M298.367,386.722c-2.123-22.764-11.256-43.491-25.217-60.005c-19.049-22.526-47.09-37.208-78.582-38.509"/>
<path fill="none" stroke="#F4AC23" stroke-width="7" stroke-linecap="round" stroke-linejoin="round" stroke-miterlimit="10" d="
	M194.568,287.164c-1.516-0.063-3.037-0.094-4.568-0.094c-60.11,0-108.841,48.729-108.841,108.839
	c0,60.113,48.73,108.842,108.841,108.842c60.111,0,108.84-48.729,108.84-108.842c0-3.449-0.158-6.863-0.473-10.232"/>
<polyline fill="none" stroke="#333333" stroke-width="7" stroke-linecap="round" stroke-linejoin="round" stroke-miterlimit="10" points="
	155.141,507.101 155.141,520.468 224.576,520.468 224.576,507.101 "/>
<rect x="158.795" y="508.284" fill="#C0DEF2" width="62.127" height="5.004"/>
<rect id="left-anchor_1_" x="180.14" y="277.211" fill="#EEF9FE" stroke="#F4AC23" stroke-width="7" stroke-linecap="round" stroke-linejoin="round" stroke-miterlimit="10" width="19.722" height="19.719"/>
<rect id="left-anchor_2_" x="71.299" y="383.019" fill="#EEF9FE" stroke="#F4AC23" stroke-width="7" stroke-linecap="round" stroke-linejoin="round" stroke-miterlimit="10" width="19.721" height="19.719"/>
<rect id="left-anchor_15_" x="288.98" y="383.019" fill="#EEF9FE" stroke="#F4AC23" stroke-width="7" stroke-linecap="round" stroke-linejoin="round" stroke-miterlimit="10" width="19.721" height="19.719"/>
<path id="outer-pen-line_6_" fill="#EEF9FE" d="M224.225,470.728l0.053-7.855c0-20.938,27.773-44.832,27.773-44.832l-61.633-118.683
	L128.65,418.04c0,0,27.771,23.521,27.771,44.832l0.045,6.77"/>
<path fill="#C0DEF2" d="M194.123,329.733l44.086,86.318c0,0-25.641,21.23-25.641,51.51h9.4c0,0,12.527-35.15,27.494-49.422
	l-57.082-109.556"/>
<polyline fill="#C0DEF2" points="193.773,328.517 193.773,397.429 200.039,401.259 200.039,340.175 "/>
<line id="vert-line_5_" fill="none" stroke="#333333" stroke-width="7" stroke-linecap="round" stroke-linejoin="round" stroke-miterlimit="10" x1="190.416" y1="299.359" x2="190.416" y2="398.902"/>
<path id="circle_5_" fill="none" stroke="#333333" stroke-width="7" stroke-linecap="round" stroke-linejoin="round" stroke-miterlimit="10" d="
	M190.174,398.902c6.318,0,11.439,5.124,11.439,11.442s-5.121,11.441-11.439,11.441c-6.316,0-11.438-5.123-11.438-11.441
	S183.857,398.902,190.174,398.902z"/>
<path id="outer-pen-line_5_" fill="none" stroke="#333333" stroke-width="7" stroke-linecap="round" stroke-linejoin="round" stroke-miterlimit="10" d="
	M224.225,470.728l0.053-7.855c0-20.938,27.773-44.832,27.773-44.832l-61.633-118.683L128.65,418.04c0,0,27.771,23.521,27.771,44.832
	l0.045,6.77"/>
<rect id="horizon-line_6_" x="141.793" y="470.728" fill="#EEF9FE" width="96.416" height="34.023"/>
<polygon fill="#EDD8BA" points="226.316,473.673 235.123,473.673 235.123,502.276 226.424,502.276 "/>
<rect id="horizon-line_5_" x="141.793" y="470.728" fill="none" stroke="#F4AC23" stroke-width="7" stroke-linecap="round" stroke-linejoin="round" stroke-miterlimit="10" width="96.416" height="34.023"/>
<rect x="192.5" y="280.714" fill="#EDC891" width="3.834" height="12.708"/>
<rect x="301.417" y="386.523" fill="#EDC891" width="3.834" height="12.709"/>
<rect x="83.75" y="386.523" fill="#EDC891" width="3.834" height="12.709"/>
<rect x="68.705" y="31.29" fill="#EEF9FE" width="276.902" height="169.139"/>
<rect x="36.833" y="120.597" fill="#EEF9FE" width="58.448" height="115.012"/>
<polyline fill="none" stroke="#F5AC23" stroke-width="7" stroke-linecap="round" stroke-linejoin="round" stroke-miterlimit="10" points="
	122.119,155.776 122.119,60.608 293.062,60.608 293.062,155.776 "/>
<g id="computer">
	
		<polyline id="outer_comp_line" fill="none" stroke="#333333" stroke-width="7" stroke-linecap="round" stroke-linejoin="round" stroke-miterlimit="10" points="
		69.574,119.723 69.574,31.29 345.606,31.29 345.606,200.429 95.282,200.429 	"/>
	
		<polyline id="bottom_screen_line" fill="none" stroke="#333333" stroke-width="7" stroke-linecap="round" stroke-linejoin="round" stroke-miterlimit="10" points="
		344.931,155.776 95.935,155.776 95.935,155.776 	"/>
	<circle id="power_circle" fill="#333333" cx="209.614" cy="178.24" r="6.315"/>
	
		<rect id="two_stand_line" x="194.059" y="200.429" fill="none" stroke="#333333" stroke-width="7" stroke-linecap="round" stroke-linejoin="round" stroke-miterlimit="10" width="31.124" height="35.18"/>
	
		<line id="stand_line" fill="none" stroke="#333333" stroke-width="7" stroke-linecap="round" stroke-linejoin="round" stroke-miterlimit="10" x1="169.025" y1="235.608" x2="248.858" y2="235.608"/>
</g>
<g id="phone">
	
		<polygon id="case_line" fill="none" stroke="#333333" stroke-width="7" stroke-linecap="round" stroke-linejoin="round" stroke-miterlimit="10" points="
		95.282,235.608 34.393,235.608 34.393,120.597 64.339,120.597 95.282,120.597 	"/>
	<circle id="circle_power" fill="#333333" cx="64.642" cy="223.653" r="6.314"/>
</g>
<line fill="none" stroke="#F5AC23" stroke-width="7" stroke-linecap="round" stroke-linejoin="round" stroke-miterlimit="10" x1="122.119" y1="75.943" x2="293.062" y2="75.943"/>
<line fill="none" stroke="#F5AC23" stroke-width="7" stroke-linecap="round" stroke-linejoin="round" stroke-miterlimit="10" x1="168.401" y1="89.865" x2="248.233" y2="89.865"/>
<line fill="none" stroke="#333333" stroke-width="7" stroke-linecap="round" stroke-linejoin="round" stroke-miterlimit="10" x1="34.393" y1="130.929" x2="94.61" y2="130.929"/>
<line fill="none" stroke="#F5AC23" stroke-width="7" stroke-linecap="round" stroke-linejoin="round" stroke-miterlimit="10" x1="45.762" y1="141.644" x2="83.913" y2="141.644"/>
<rect x="98.641" y="191.04" fill="#C0DEF2" width="243.584" height="6.086"/>
<rect x="336.14" y="159.25" fill="#C0DEF2" width="6.086" height="37.876"/>
<rect x="98.641" y="159.25" fill="#C0DEF2" width="6.087" height="37.876"/>
<rect x="98.745" y="124.078" fill="#C0DEF2" width="6.087" height="28.216"/>
<rect x="86.005" y="215.06" fill="#C0DEF2" width="6.009" height="17.034"/>
<rect x="86.005" y="124.078" fill="#C0DEF2" width="6.009" height="3.344"/>
<rect x="285.058" y="64.125" fill="#EDD8BA" width="4.807" height="8.281"/>
<rect x="239.628" y="141.103" fill="#EDD8BA" width="48.758" height="8.25"/>
<polygon fill="#EDD8BA" points="225.493,105.31 225.493,141.103 188.379,141.103 188.379,149.353 225.493,149.353 233.431,149.353 
	233.431,141.103 233.431,105.31 "/>
<polygon fill="#EDD8BA" points="174.407,105.31 174.407,141.103 137.617,141.103 137.617,149.353 174.407,149.353 182.275,149.353 
	182.275,141.103 182.275,105.31 "/>
<polygon fill="#EDD8BA" points="82.552,153.845 82.552,189.638 45.762,189.638 45.762,197.89 82.552,197.89 90.421,197.89 
	90.421,189.638 90.421,153.845 "/>
<rect x="125.625" y="78.848" fill="#EDD8BA" width="161.837" height="3.305"/>
<rect x="296.538" y="63.921" fill="#EDD8BA" width="4.805" height="88.371"/>
<g>
	
		<rect x="239.628" y="103.492" fill="none" stroke="#F5AC23" stroke-width="7" stroke-linecap="round" stroke-linejoin="round" stroke-miterlimit="10" width="38.152" height="38.151"/>
</g>
<path fill="#EDD8BA" d="M285.166,78.848V99.62c0,4.683-2.96,5.023-3.622,5.041h-0.294v40.225h3.916v7.406h4.698V78.848H285.166z"/>
<g>
	
		<rect x="188.514" y="103.492" fill="none" stroke="#F5AC23" stroke-width="7" stroke-linecap="round" stroke-linejoin="round" stroke-miterlimit="10" width="38.153" height="38.151"/>
</g>
<g>
	
		<rect x="137.135" y="103.492" fill="none" stroke="#F5AC23" stroke-width="7" stroke-linecap="round" stroke-linejoin="round" stroke-miterlimit="10" width="38.151" height="38.151"/>
</g>
<g>
	
		<rect x="45.762" y="152.366" fill="none" stroke="#F5AC23" stroke-width="7" stroke-linecap="round" stroke-linejoin="round" stroke-miterlimit="10" width="38.15" height="38.152"/>
</g>
<polyline fill="none" stroke="#F5AC23" stroke-width="7" stroke-linecap="round" stroke-linejoin="round" stroke-miterlimit="10" points="
	45.762,209.478 45.762,200.429 83.913,200.429 83.913,209.478 "/>
<rect x="87.406" y="202.372" fill="#EDD8BA" width="3.015" height="5.926"/>
<line fill="none" stroke="#333333" stroke-width="7" stroke-linecap="round" stroke-linejoin="round" stroke-miterlimit="10" x1="34.393" y1="211.583" x2="94.61" y2="211.583"/>
</svg>
