<svg xmlns="http://www.w3.org/2000/svg" version="1.1" x="0" y="0" width="380" height="260" viewBox="0 0 380 260" enable-background="new 0 0 380 260" xml:space="preserve"><g id="filled-layer"><path opacity="0.4" fill="#C5D9DD" d="M62 130.5h25.8v36h26.8V75.5h168.7l2 3.5v86.8h51.3c0 0 1.5-117.3 0-121.5s-6.6-1.3-6.6-1.3H69.4c0 0-6 0.6-5.8 4.8"/><g opacity="0.4"><path fill="#ADBFC4" d="M262.6 74.6c0-0.5 0.5-1 1-1h9c0.6 0 1 0.5 1 1v10.6c0 0.6-0.4 1-1 1h-9c-0.5 0-1-0.4-1-1V74.6z"/></g><g opacity="0.4"><path fill="#C5D9DD" d="M251.6 74.6c0-0.5 0.5-1 1-1h9c0.6 0 1 0.5 1 1v10.6c0 0.6-0.4 1-1 1h-9c-0.5 0-1-0.4-1-1V74.6z"/></g><path id="two_stand_line_2_" opacity="0.4" fill="#ADBFC4" d="M217.8 208.8v37.9h-31.1v-37.9c0 0 3.4-0.5 8.1 0H217.8z"/><g opacity="0.4"><path fill="#3E3E3E" d="M224.9 121.1c0-0.5 0.1-1.2 0.2-1.5 0.1-0.3 1.3-0.5 1.8-0.5h27.5c0.6 0 1.2 0.1 1.5 0.2 0.3 0.1 0.5 1.3 0.5 1.8v27.5c0 0.6-0.1 1.2-0.2 1.5s-1.3 0.5-1.8 0.5h-27.5c-0.5 0-1.2-0.1-1.5-0.2s-0.5-1.3-0.5-1.8V121.1z"/></g><g opacity="0.4"><path fill="#ADBFC4" d="M184.1 121.1c0-0.5 0.1-1.2 0.2-1.5s1.3-0.5 1.8-0.5h27.5c0.6 0 1.2 0.1 1.5 0.2 0.3 0.1 0.5 1.3 0.5 1.8v27.5c0 0.6-0.1 1.2-0.2 1.5s-1.3 0.5-1.8 0.5h-27.5c-0.5 0-1.2-0.1-1.5-0.2 -0.3-0.1-0.5-1.3-0.5-1.8V121.1z"/></g><g opacity="0.4"><path fill="#C5D9DD" d="M143.7 121.1c0-0.5 0.1-1.2 0.2-1.5 0.1-0.3 1.3-0.5 1.8-0.5h27.5c0.6 0 1.2 0.1 1.5 0.2s0.5 1.3 0.5 1.8v27.5c0 0.6-0.1 1.2-0.2 1.5s-1.3 0.5-1.8 0.5h-27.5c-0.5 0-1.2-0.1-1.5-0.2s-0.5-1.3-0.5-1.8V121.1z"/></g><path opacity="0.4" fill="#3E3E3E" d="M273.6 73.6v12.6h12.7V75.7c0 0-7.4-2.6-8.6-2.5S273.6 73.6 273.6 73.6z"/><g opacity="0.4"><g><g><path fill="#C5D9DD" d="M39.1 164.8c0-0.5 0.5-1 1-1h36.1c0.6 0 1 0.5 1 1v36.2c0 0.6-0.4 1-1 1H40.1c-0.5 0-1-0.4-1-1V164.8z"/></g></g></g><path opacity="0.4" fill="#ADBFC4" d="M51.1 223.3c-4.3 2.1-12.7 0.9-12.7 0.9v-11h38.2v11C76.5 224.2 55.4 221.2 51.1 223.3z"/></g><g id="Layer_1"><rect x="262.6" y="73.6" fill="none" width="11" height="12.6"/><rect x="251.6" y="73.6" fill="none" width="11" height="12.6"/><path id="outer_comp_line_2_" fill="none" stroke="#3E3E3E" stroke-width="5" stroke-miterlimit="10" d="M87.9 211.9"/><polyline id="bottom_screen_line" fill="none" stroke="#3E3E3E" stroke-width="5" stroke-miterlimit="10" points="337.5 167.2 88.5 167.2 88.5 167.2 "/><circle id="power_circle" fill="#3E3E3E" cx="202.2" cy="189.7" r="6.3"/><polyline id="two_stand_line_1_" fill="none" stroke="#3E3E3E" stroke-width="5" stroke-miterlimit="10" points="217.8 209.2 217.8 247.1 186.6 247.1 186.6 209.2 "/><line id="stand_line" fill="none" stroke="#3E3E3E" stroke-width="5" stroke-linecap="round" stroke-miterlimit="10" x1="161.6" y1="247.1" x2="241.4" y2="247.1"/><line fill="none" stroke="#3E3E3E" stroke-miterlimit="10" x1="114.7" y1="86.3" x2="285.6" y2="86.3"/><line fill="none" stroke="#3E3E3E" stroke-width="5" stroke-linecap="round" stroke-linejoin="round" stroke-miterlimit="10" x1="161" y1="103" x2="213" y2="103"/><path fill="none" stroke="#3E3E3E" stroke-width="5" stroke-miterlimit="10" d="M62.1 132.1l0.1-83.2c0-4 3.2-7.2 7.2-7.2h261.9c4 0 7.2 3.2 7.2 7.2v22.1l-0.1 130.4c0 4-3.2 7.2-7.2 7.2H87.9M115 167.2l0.1-89.1c0-2.5 2-4.4 4.4-4.4H281c2.5 0 4.4 2 4.4 4.4V91.7l-0.1 75.5M224.9 120.1c0-0.6 0.5-1.1 1.1-1.1h29.5c0.6 0 1.1 0.5 1.1 1.1v29.5c0 0.6-0.5 1.1-1.1 1.1h-29.5c-0.6 0-1.1-0.5-1.1-1.1V120.1zM184.1 120.1c0-0.6 0.5-1.1 1.1-1.1h29.5c0.6 0 1.1 0.5 1.1 1.1v29.5c0 0.6-0.5 1.1-1.1 1.1h-29.5c-0.6 0-1.1-0.5-1.1-1.1V120.1zM143.7 120.1c0-0.6 0.5-1.1 1.1-1.1h29.5c0.6 0 1.1 0.5 1.1 1.1v29.5c0 0.6-0.5 1.1-1.1 1.1h-29.5c-0.6 0-1.1-0.5-1.1-1.1V120.1z"/><polygon fill="none" points="273.6 73.6 273.6 86.3 286.3 86.3 286.3 75.7 277.7 73.2 "/><line fill="none" stroke="#3E3E3E" stroke-width="5" stroke-linecap="round" stroke-linejoin="round" stroke-miterlimit="10" x1="221.7" y1="103" x2="240.8" y2="103"/><g id="phone"><polygon id="case_line" fill="none" stroke="#3E3E3E" stroke-width="5" stroke-linecap="round" stroke-linejoin="round" stroke-miterlimit="10" points=" 87.9 247.1 27 247.1 27 132.1 56.9 132.1 87.9 132.1 "/></g><line fill="none" stroke="#3E3E3E" stroke-width="5" stroke-linecap="round" stroke-linejoin="round" stroke-miterlimit="10" x1="38.3" y1="153.1" x2="62.7" y2="153.1"/><g><rect x="38.3" y="163.8" fill="none" stroke="#3E3E3E" stroke-width="4.5" stroke-linecap="round" stroke-linejoin="round" stroke-miterlimit="10" width="38.1" height="38.2"/></g><polyline fill="none" stroke="#3E3E3E" stroke-width="5.5" stroke-linecap="round" stroke-linejoin="round" stroke-miterlimit="10" points=" 38.3 222.9 38.3 211.9 76.5 211.9 76.5 222.9 "/><line fill="none" stroke="#3E3E3E" stroke-width="5" stroke-linecap="round" stroke-linejoin="round" stroke-miterlimit="10" x1="69.2" y1="153.1" x2="76.5" y2="153.1"/><polyline fill="#FFFFFF" stroke="#3E3E3E" stroke-width="5" stroke-miterlimit="10" points="87.9 233.5 87.9 222.9 27 222.9 27 233.5 "/><circle id="circle_power" fill="#3E3E3E" cx="57.1" cy="234.6" r="6.3"/><line fill="none" stroke="#3E3E3E" stroke-width="5" stroke-linecap="round" stroke-linejoin="round" stroke-miterlimit="10" x1="27" y1="143.5" x2="87.9" y2="143.5"/></g></svg>