<svg xmlns="http://www.w3.org/2000/svg" version="1.1" x="0" y="0" width="380" height="260" viewBox="0 0 380 260" enable-background="new 0 0 380 260" xml:space="preserve"><g><path opacity="0.4" fill="#C5D9DD" d="M253 185.7l-2.5-6.9c-5.5-15 4.6-37.6 8.4-45.4 0 0 1.5-2.5-1.2-5l-87.2-79.3c-2.4-2.2-2.7 1.2-2.7 1.2l-14.9 117.4c0 0-0.5 2.8 2.5 4 7.9 3.4 30.3 13.9 35.9 29.1l2.2 5.9"/><path opacity="0.4" fill="#C5D9DD" d="M170.2 42.4c0 2.7-2.2 4.9-4.9 4.9h-7.5c-2.7 0-4.9-2.2-4.9-4.9v-7.5c0-2.7 2.2-4.9 4.9-4.9h7.5c2.7 0 4.9 2.2 4.9 4.9V42.4z"/><path opacity="0.4" fill="#C5D9DD" d="M259.3 42.4c0 2.7-2.2 4.9-4.9 4.9h-7.5c-2.7 0-4.9-2.2-4.9-4.9v-7.5c0-2.7 2.2-4.9 4.9-4.9h7.5c2.7 0 4.9 2.2 4.9 4.9V42.4z"/><path opacity="0.4" fill="#C5D9DD" d="M283 124.7c0 2.7-2.2 4.9-4.9 4.9h-7.5c-2.7 0-4.9-2.2-4.9-4.9v-7.5c0-2.7 2.2-4.9 4.9-4.9h7.5c2.7 0 4.9 2.2 4.9 4.9V124.7z"/><path opacity="0.4" fill="#C5D9DD" d="M99.1 206.4c0 2.7-2.2 4.9-4.9 4.9h-7.5c-2.7 0-4.9-2.2-4.9-4.9v-7.5c0-2.7 2.2-4.9 4.9-4.9h7.5c2.7 0 4.9 2.2 4.9 4.9V206.4z"/><path opacity="0.4" fill="#ADBFC4" stroke="#2F373A" stroke-width="5" stroke-miterlimit="10" d="M265.8 187.8c-1.5-4.1-5.9-6.3-9.9-4.9l-66.8 24.7c-3.9 1.4-5.9 6-4.3 10.1l5 13.4c1.5 4.1 6 6.3 9.9 4.9l66.8-24.7c3.9-1.4 5.9-6 4.3-10.1L265.8 187.8z"/></g><g><path fill="none" stroke="#2F373A" stroke-width="5" stroke-miterlimit="10" d="M253 185.7l-2.5-6.9c-5.5-15 4.6-37.6 8.4-45.4 0 0 1.5-2.5-1.2-5l-87.2-79.3c-2.4-2.2-2.7 1.2-2.7 1.2l-14.9 117.4c0 0-0.5 2.8 2.5 4 7.9 3.4 30.3 13.9 35.9 29.1l2.2 5.9"/><path fill="none" stroke="#2F373A" stroke-width="5" stroke-linecap="round" stroke-linejoin="round" stroke-miterlimit="10" d="M240.9 38.3c-0.9 0-1.7 0-2.6 0h-68"/><path fill="none" stroke="#2F373A" stroke-width="5" stroke-linecap="round" stroke-linejoin="round" stroke-miterlimit="10" d="M283.2 115.5c10-7 15.9-16.8 15.9-32.1v-0.5c0-23.3-14.8-37.5-38.9-42.5"/><path fill="none" stroke="#2F373A" stroke-width="5" stroke-linecap="round" stroke-linejoin="round" stroke-miterlimit="10" d="M269.9 198.9c3.7-1.3 7-2.9 10.1-4.8 12.2-7.4 19.1-19.1 19.1-35.1v-0.5c0-15.3-5.9-25.1-15.9-32.1"/><path fill="none" stroke="#2F373A" stroke-width="5" stroke-miterlimit="10" d="M170.2 42.4c0 2.7-2.2 4.9-4.9 4.9h-7.5c-2.7 0-4.9-2.2-4.9-4.9v-7.5c0-2.7 2.2-4.9 4.9-4.9h7.5c2.7 0 4.9 2.2 4.9 4.9V42.4z"/><path fill="none" stroke="#2F373A" stroke-width="5" stroke-miterlimit="10" d="M259.3 42.4c0 2.7-2.2 4.9-4.9 4.9h-7.5c-2.7 0-4.9-2.2-4.9-4.9v-7.5c0-2.7 2.2-4.9 4.9-4.9h7.5c2.7 0 4.9 2.2 4.9 4.9V42.4z"/><path fill="none" stroke="#2F373A" stroke-width="5" stroke-miterlimit="10" d="M283 124.7c0 2.7-2.2 4.9-4.9 4.9h-7.5c-2.7 0-4.9-2.2-4.9-4.9v-7.5c0-2.7 2.2-4.9 4.9-4.9h7.5c2.7 0 4.9 2.2 4.9 4.9V124.7z"/><path fill="none" stroke="#2F373A" stroke-width="5" stroke-miterlimit="10" d="M99.1 206.4c0 2.7-2.2 4.9-4.9 4.9h-7.5c-2.7 0-4.9-2.2-4.9-4.9v-7.5c0-2.7 2.2-4.9 4.9-4.9h7.5c2.7 0 4.9 2.2 4.9 4.9V206.4z"/><path fill="#2F373A" stroke="#2F373A" stroke-width="5" stroke-linecap="round" stroke-linejoin="round" stroke-miterlimit="10" d="M202.8 235.4l4.3 11.6c1.3 3.5 5.1 5.2 8.6 4l48.1-17.7c3.5-1.3 5.3-5.1 4-8.6l-4-10.9"/><line fill="none" stroke="#2F373A" stroke-miterlimit="10" x1="168.2" y1="46.9" x2="200.3" y2="133.9"/><path fill="#FFFFFF" stroke="#2F373A" stroke-width="5" stroke-miterlimit="10" d="M200.1 133.9c5.5-2 11.6 0.8 13.7 6.3 2 5.5-0.8 11.6-6.3 13.7 -5.5 2-11.6-0.8-13.7-6.3C191.8 142.1 194.6 136 200.1 133.9z"/><path fill="none" stroke="#2F373A" stroke-width="5" stroke-miterlimit="10" d="M265.8 187.8c-1.5-4.1-5.9-6.3-9.9-4.9l-66.8 24.7c-3.9 1.4-5.9 6-4.3 10.1l5 13.4c1.5 4.1 6 6.3 9.9 4.9l66.8-24.7c3.9-1.4 5.9-6 4.3-10.1L265.8 187.8z"/><line fill="none" stroke="#2F373A" stroke-width="5" stroke-linecap="round" stroke-linejoin="round" stroke-miterlimit="10" x1="99.1" y1="202.6" x2="192" y2="202.6"/><line fill="none" stroke="#2F373A" stroke-width="5" stroke-linecap="round" stroke-linejoin="round" stroke-miterlimit="10" stroke-dasharray="10" x1="154.5" y1="46" x2="90.4" y2="194"/></g></svg>