<svg xmlns="http://www.w3.org/2000/svg" version="1.1" x="0" y="0" width="380" height="260" viewBox="0 0 380 260" enable-background="new 0 0 380 260" xml:space="preserve"><g id="filled-layer"><path opacity="0.4" fill="#C5D9DD" d="M172.2 77.9h8.7c0 0 3.4-1.6 12.8-2S243 77.9 243 77.9v60.1h-50.4L172.2 77.9z"/><path opacity="0.4" fill="#ADBFC4" d="M258.3 160h57.5v42l-33.9-0.6 -6.3 0.6c0 0-4.3 0.6-9 0s-8.3-1-8.3-1V160z"/><path opacity="0.4" fill="#ADBFC4" d="M170.7 77.8H142.8c0 0-6.1-1.9-20-1.9L106 77.8H63.4v122.8h149.6L170.7 77.8z"/><path opacity="0.4" fill="#C5D9DD" d="M66.1 79.2l28.8 12.5c0 0 11.6 4.1 16.8 7.7s14.6 10.1 14.6 10.1l62.4 31.4 -122.6 60V79.2z"/><path opacity="0.4" fill="#ADBFC4" d="M295.4 41.2v19.8h18.2V41.2l-10 0c0 0-2.3-1-4.3-0.6S295.4 41.2 295.4 41.2z"/><path opacity="0.4" fill="#C5D9DD" d="M277.2 41.2v19.8h18.2V41.2l-9 0c0 0-2.6-0.9-5.2-1.1S277.2 41.2 277.2 41.2z"/><path opacity="0.4" fill="#3E3E3E" d="M313.6 61V41.2l12.3 0c0 0 6.6 0.3 7.6 6.3l1.4 13.5H313.6z"/></g><g id="Layer_1"><g><g id="Layer_1_2_"><g id="Layer_1_1_"><path fill="#3E3E3E" d="M199.3 157.5h25.9c1.4 0 2.5 1.1 2.5 2.5s-1.1 2.5-2.5 2.5H202"/><line fill="none" stroke="#3E3E3E" stroke-width="5" stroke-linecap="round" stroke-linejoin="round" stroke-miterlimit="10" x1="243.9" y1="160" x2="234.2" y2="160"/><path fill="#3E3E3E" d="M206.7 178.4h37.2c1.4 0 2.5 1.1 2.5 2.5s-1.1 2.5-2.5 2.5H208.8"/><path fill="none" stroke="#3E3E3E" stroke-width="5" stroke-miterlimit="10" d="M333.8 210.7c0 4-3.2 7.2-7.2 7.2H54.3c-4 0-7.2-3.2-7.2-7.2V48.4c0-4 3.2-7.2 7.2-7.2H326.6c4 0 7.2 3.2 7.2 7.2v22.1V210.7z"/><line fill="none" stroke="#3E3E3E" stroke-miterlimit="10" x1="47.1" y1="61" x2="333.8" y2="61"/><line fill="none" stroke="#3E3E3E" stroke-width="5" stroke-linecap="round" stroke-miterlimit="10" x1="150.8" y1="20.7" x2="158.2" y2="40.9"/><line fill="none" stroke="#3E3E3E" stroke-width="5" stroke-linecap="round" stroke-miterlimit="10" x1="218.7" y1="218.4" x2="226" y2="238.5"/><polyline fill="none" stroke="#3E3E3E" stroke-miterlimit="10" points="150.8 19.7 170.2 75.9 225.2 236.5 "/><polyline fill="none" stroke="#3E3E3E" stroke-width="5" stroke-linecap="round" stroke-linejoin="round" stroke-miterlimit="10" points=" 170.2 75.9 63.4 75.9 63.4 202 243.9 202 "/><polyline fill="none" stroke="#3E3E3E" stroke-width="5" stroke-linecap="round" stroke-linejoin="round" stroke-miterlimit="10" points=" 171.3 75.9 243.9 75.9 243.9 140 192.4 140 "/><polyline fill="none" stroke="#3E3E3E" stroke-width="5" stroke-linecap="round" stroke-linejoin="round" stroke-miterlimit="10" points=" 63.4 75.9 191.4 140 63.4 202 "/><rect x="257.3" y="75.9" fill="none" stroke="#3E3E3E" stroke-width="5" stroke-linecap="round" stroke-linejoin="round" stroke-miterlimit="10" width="59.7" height="126.2"/><line fill="none" stroke="#3E3E3E" stroke-width="5" stroke-linecap="round" stroke-linejoin="round" stroke-miterlimit="10" x1="257.3" y1="160" x2="316.9" y2="160"/><path fill="none" stroke="#3E3E3E" stroke-width="5" stroke-linecap="round" stroke-linejoin="round" stroke-miterlimit="10" d="M214.4 202"/><polyline fill="#FFFFFF" points="169.6 72.5 214.9 204.7 217.7 204.7 172.6 72.5 "/></g></g></g></g></svg>