<svg version="1.1" xmlns="http://www.w3.org/2000/svg" xmlns:xlink="http://www.w3.org/1999/xlink" x="0px" y="0px" width="380px"
	 height="260px" viewBox="0 0 380 260" enable-background="new 0 0 380 260" xml:space="preserve">
<g id="filled-layer">
	<path id="outer-pen-line_3_1_" opacity="0.4" fill="#C5D9DD" d="M253.021,185.701l-2.487-6.877
		c-5.523-14.961,4.551-37.643,8.399-45.399c0,0,1.469-2.51-1.16-5.047l-87.21-79.344c-2.433-2.213-2.74,1.152-2.74,1.152
		l-14.9,117.39c0,0-0.462,2.775,2.454,4.046c7.896,3.444,30.268,13.856,35.887,29.081l2.223,5.896"/>
	<path id="test_1_" opacity="0.4" fill="#C5D9DD" d="M170.216,42.403c0,2.702-2.189,4.891-4.891,4.891h-7.54
		c-2.702,0-4.891-2.189-4.891-4.891v-7.54c0-2.702,2.189-4.891,4.891-4.891h7.54c2.702,0,4.891,2.189,4.891,4.891V42.403z"/>
	<path opacity="0.4" fill="#C5D9DD" d="M259.342,42.403c0,2.702-2.188,4.891-4.892,4.891h-7.54c-2.701,0-4.892-2.189-4.892-4.891
		v-7.54c0-2.702,2.188-4.891,4.892-4.891h7.54c2.701,0,4.892,2.189,4.892,4.891V42.403z"/>
	<path opacity="0.4" fill="#C5D9DD" d="M283.042,124.749c0,2.702-2.188,4.891-4.893,4.891h-7.539c-2.698,0-4.891-2.189-4.891-4.891
		v-7.541c0-2.701,2.188-4.891,4.891-4.891h7.539c2.703,0,4.893,2.189,4.893,4.891V124.749z"/>
	<path opacity="0.4" fill="#C5D9DD" d="M99.064,206.415c0,2.701-2.189,4.892-4.891,4.892h-7.541c-2.702,0-4.891-2.188-4.891-4.892
		v-7.539c0-2.702,2.189-4.892,4.891-4.892h7.541c2.701,0,4.891,2.188,4.891,4.892V206.415z"/>
	<path opacity="0.4" fill="#ADBFC4" stroke="#2F373A" stroke-width="5" stroke-miterlimit="10" d="M265.784,187.759
		c-1.531-4.147-5.95-6.335-9.87-4.887l-66.803,24.658c-3.92,1.448-5.858,5.981-4.327,10.127l4.958,13.438
		c1.532,4.146,5.95,6.334,9.871,4.887l66.803-24.659c3.92-1.448,5.856-5.979,4.326-10.13L265.784,187.759z"/>
</g>
<g id="pen-icon">
	<defs>
		
		<script></script>
	</defs>
	<path id="outer-pen-line_3" fill="none" stroke="#2F373A" stroke-width="5" stroke-miterlimit="10" d="M253.021,185.701
		l-2.487-6.877c-5.523-14.961,4.551-37.643,8.399-45.399c0,0,1.469-2.51-1.16-5.047l-87.21-79.344
		c-2.433-2.213-2.74,1.152-2.74,1.152l-14.9,117.39c0,0-0.462,2.775,2.454,4.046c7.896,3.444,30.268,13.856,35.887,29.081
		l2.223,5.896"/>
	<path fill="none" stroke="#2F373A" stroke-width="5" stroke-linecap="round" stroke-linejoin="round" stroke-miterlimit="10" d="
		M240.878,38.312c-0.864-0.017-1.736-0.025-2.615-0.025h-68.043"/>
	<path fill="none" stroke="#2F373A" stroke-width="5" stroke-linecap="round" stroke-linejoin="round" stroke-miterlimit="10" d="
		M283.191,115.505c10.004-7.004,15.926-16.828,15.926-32.15v-0.464c0-23.3-14.84-37.474-38.916-42.516"/>
	<path fill="none" stroke="#2F373A" stroke-width="5" stroke-linecap="round" stroke-linejoin="round" stroke-miterlimit="10" d="
		M269.889,198.881c3.672-1.313,7.047-2.897,10.099-4.752c12.15-7.391,19.13-19.074,19.13-35.055v-0.46
		c0-15.295-5.903-25.113-15.865-32.112"/>
	<path id="test" fill="none" stroke="#2F373A" stroke-width="5" stroke-miterlimit="10" d="M170.216,42.403
		c0,2.702-2.189,4.891-4.891,4.891h-7.54c-2.702,0-4.891-2.189-4.891-4.891v-7.54c0-2.702,2.189-4.891,4.891-4.891h7.54
		c2.702,0,4.891,2.189,4.891,4.891V42.403z"/>
	<path fill="none" stroke="#2F373A" stroke-width="5" stroke-miterlimit="10" d="M259.342,42.403c0,2.702-2.188,4.891-4.892,4.891
		h-7.54c-2.701,0-4.892-2.189-4.892-4.891v-7.54c0-2.702,2.188-4.891,4.892-4.891h7.54c2.701,0,4.892,2.189,4.892,4.891V42.403z"/>
	<path fill="none" stroke="#2F373A" stroke-width="5" stroke-miterlimit="10" d="M283.042,124.749c0,2.702-2.188,4.891-4.893,4.891
		h-7.539c-2.698,0-4.891-2.189-4.891-4.891v-7.541c0-2.701,2.188-4.891,4.891-4.891h7.539c2.703,0,4.893,2.189,4.893,4.891V124.749z
		"/>
	<path fill="none" stroke="#2F373A" stroke-width="5" stroke-miterlimit="10" d="M99.064,206.415c0,2.701-2.189,4.892-4.891,4.892
		h-7.541c-2.702,0-4.891-2.188-4.891-4.892v-7.539c0-2.702,2.189-4.892,4.891-4.892h7.541c2.701,0,4.891,2.188,4.891,4.892V206.415z
		"/>
	
		<path fill="#2F373A" stroke="#2F373A" stroke-width="5" stroke-linecap="round" stroke-linejoin="round" stroke-miterlimit="10" d="
		M202.811,235.428l4.292,11.633c1.285,3.473,5.144,5.248,8.611,3.967l48.07-17.745c3.475-1.281,5.25-5.138,3.969-8.609
		l-4.018-10.884"/>
	<line id="vert-line_5_" fill="none" stroke="#2F373A" stroke-miterlimit="10" x1="168.234" y1="46.92" x2="200.33" y2="133.864"/>
	<path id="circle_5_" fill="#FFFFFF" stroke="#2F373A" stroke-width="5" stroke-miterlimit="10" d="M200.117,133.943
		c5.521-2.036,11.646,0.787,13.683,6.306c2.035,5.519-0.785,11.646-6.305,13.683c-5.516,2.035-11.643-0.787-13.678-6.306
		C191.778,142.107,194.599,135.982,200.117,133.943z"/>
	<path fill="none" stroke="#2F373A" stroke-width="5" stroke-miterlimit="10" d="M265.784,187.759
		c-1.531-4.147-5.95-6.335-9.87-4.887l-66.803,24.658c-3.92,1.448-5.858,5.981-4.327,10.127l4.958,13.438
		c1.532,4.146,5.95,6.334,9.871,4.887l66.803-24.659c3.92-1.448,5.856-5.979,4.326-10.13L265.784,187.759z"/>
	
		<line fill="none" stroke="#2F373A" stroke-width="5" stroke-linecap="round" stroke-linejoin="round" stroke-miterlimit="10" x1="99.064" y1="202.645" x2="191.993" y2="202.645"/>
	
		<line fill="none" stroke="#2F373A" stroke-width="5" stroke-linecap="round" stroke-linejoin="round" stroke-miterlimit="10" stroke-dasharray="10,10,4,0" x1="154.48" y1="46.001" x2="90.403" y2="193.984"/>
</g>
</svg>
