<?xml version="1.0" encoding="utf-8"?>
<!-- Generator: Adobe Illustrator 16.0.0, SVG Export Plug-In . SVG Version: 6.00 Build 0)  -->
<!DOCTYPE svg PUBLIC "-//W3C//DTD SVG 1.1//EN" "http://www.w3.org/Graphics/SVG/1.1/DTD/svg11.dtd">
<svg version="1.1" id="Layer_1" xmlns="http://www.w3.org/2000/svg" xmlns:xlink="http://www.w3.org/1999/xlink" x="0px" y="0px"
	 width="380px" height="260px" viewBox="0 0 380 260" enable-background="new 0 0 380 260" xml:space="preserve">
<path fill="none" stroke="#F4AC23" stroke-width="7" stroke-linecap="round" stroke-linejoin="round" stroke-miterlimit="10" stroke-dasharray="16,15,3,0" d="
	M298.367,117.882c-2.123-22.764-11.256-43.49-25.217-60.005c-19.049-22.525-47.09-37.208-78.582-38.509"/>
<path fill="none" stroke="#F4AC23" stroke-width="7" stroke-linecap="round" stroke-linejoin="round" stroke-miterlimit="10" d="
	M194.568,18.324c-1.517-0.063-3.037-0.094-4.568-0.094c-60.11,0-108.841,48.729-108.841,108.839
	c0,60.113,48.73,108.842,108.841,108.842c60.111,0,108.84-48.729,108.84-108.842c0-3.449-0.158-6.863-0.473-10.232"/>
<polyline fill="none" stroke="#333333" stroke-width="7" stroke-linecap="round" stroke-linejoin="round" stroke-miterlimit="10" points="
	155.141,238.261 155.141,251.628 224.576,251.628 224.576,238.261 "/>
<rect x="158.795" y="239.444" fill="#C0DEF2" width="62.127" height="5.004"/>
<rect id="left-anchor_1_" x="180.14" y="8.371" fill="#EEF9FE" stroke="#F4AC23" stroke-width="7" stroke-linecap="round" stroke-linejoin="round" stroke-miterlimit="10" width="19.721" height="19.719"/>
<rect id="left-anchor_2_" x="71.299" y="114.179" fill="#EEF9FE" stroke="#F4AC23" stroke-width="7" stroke-linecap="round" stroke-linejoin="round" stroke-miterlimit="10" width="19.721" height="19.72"/>
<rect id="left-anchor_15_" x="288.98" y="114.179" fill="#EEF9FE" stroke="#F4AC23" stroke-width="7" stroke-linecap="round" stroke-linejoin="round" stroke-miterlimit="10" width="19.721" height="19.72"/>
<path id="outer-pen-line_6_" fill="#EEF9FE" d="M224.225,201.888l0.053-7.854c0-20.938,27.773-44.832,27.773-44.832L190.418,30.518
	L128.65,149.2c0,0,27.771,23.521,27.771,44.832l0.045,6.77"/>
<path fill="#C0DEF2" d="M194.123,60.894l44.086,86.317c0,0-25.641,21.23-25.641,51.51h9.399c0,0,12.527-35.149,27.494-49.422
	L192.38,39.743"/>
<polyline fill="#C0DEF2" points="193.773,59.677 193.773,128.589 200.039,132.419 200.039,71.335 "/>
<line id="vert-line_5_" fill="none" stroke="#333333" stroke-width="7" stroke-linecap="round" stroke-linejoin="round" stroke-miterlimit="10" x1="190.416" y1="30.52" x2="190.416" y2="130.063"/>
<path id="circle_5_" fill="none" stroke="#333333" stroke-width="7" stroke-linecap="round" stroke-linejoin="round" stroke-miterlimit="10" d="
	M190.174,130.063c6.318,0,11.439,5.124,11.439,11.441c0,6.318-5.121,11.441-11.439,11.441c-6.316,0-11.438-5.123-11.438-11.441
	C178.736,135.187,183.857,130.063,190.174,130.063z"/>
<path id="outer-pen-line_5_" fill="none" stroke="#333333" stroke-width="7" stroke-linecap="round" stroke-linejoin="round" stroke-miterlimit="10" d="
	M224.225,201.888l0.053-7.854c0-20.938,27.773-44.832,27.773-44.832L190.418,30.518L128.65,149.2c0,0,27.771,23.521,27.771,44.832
	l0.045,6.77"/>
<rect id="horizon-line_6_" x="141.793" y="201.888" fill="#EEF9FE" width="96.416" height="34.023"/>
<polygon fill="#EDD8BA" points="226.316,204.833 235.123,204.833 235.123,233.437 226.424,233.437 "/>
<rect id="horizon-line_5_" x="141.793" y="201.888" fill="none" stroke="#F4AC23" stroke-width="7" stroke-linecap="round" stroke-linejoin="round" stroke-miterlimit="10" width="96.416" height="34.023"/>
<rect x="192.5" y="11.874" fill="#EDC891" width="3.834" height="12.708"/>
<rect x="301.417" y="117.684" fill="#EDC891" width="3.834" height="12.709"/>
<rect x="83.75" y="117.684" fill="#EDC891" width="3.834" height="12.709"/>
</svg>
