<?xml version="1.0" encoding="utf-8"?>
<!-- Generator: Adobe Illustrator 16.0.0, SVG Export Plug-In . SVG Version: 6.00 Build 0)  -->
<!DOCTYPE svg PUBLIC "-//W3C//DTD SVG 1.1//EN" "http://www.w3.org/Graphics/SVG/1.1/DTD/svg11.dtd">
<svg version="1.1" xmlns="http://www.w3.org/2000/svg" xmlns:xlink="http://www.w3.org/1999/xlink" x="0px" y="0px" width="380px"
	 height="260px" viewBox="0 0 380 260" enable-background="new 0 0 380 260" xml:space="preserve">
<g id="filled-layer">
	<path opacity="0.4" fill="#C5D9DD" d="M172.167,77.907h8.667c0,0,3.359-1.621,12.846-2.014S243,77.907,243,77.907v60.126h-50.415
		L172.167,77.907z"/>
	<path opacity="0.4" fill="#ADBFC4" d="M258.334,160.047h57.499v42l-33.899-0.589l-6.269,0.589c0,0-4.297,0.564-9,0
		s-8.331-1-8.331-1V160.047z"/>
	<path opacity="0.4" fill="#ADBFC4" d="M170.7,77.787H142.75c0,0-6.083-1.894-20-1.894L106,77.787H63.417v122.77h149.646
		L170.7,77.787z"/>
	<path opacity="0.4" fill="#C5D9DD" d="M66.122,79.172l28.839,12.531c0,0,11.583,4.058,16.789,7.672s14.589,10.128,14.589,10.128
		l62.373,31.419l-122.59,60V79.172z"/>
	<path opacity="0.4" fill="#ADBFC4" d="M295.397,41.216v19.831h18.187V41.22l-10-0.002c0,0-2.29-0.969-4.333-0.634
		S295.397,41.216,295.397,41.216z"/>
	<path opacity="0.4" fill="#C5D9DD" d="M277.209,41.216v19.831h18.188V41.22l-8.981-0.002c0,0-2.581-0.884-5.165-1.051
		S277.209,41.216,277.209,41.216z"/>
	<path opacity="0.4" fill="#3E3E3E" d="M313.584,61.047V41.216l12.34,0.029c0,0,6.573,0.302,7.639,6.302l1.354,13.5H313.584z"/>
</g>
<g id="Layer_1">
	<g>
		<g id="Layer_1_2_">
			<g id="Layer_1_1_">
				<path fill="#3E3E3E" d="M199.26,157.547h25.913c1.382,0,2.5,1.119,2.5,2.5s-1.118,2.5-2.5,2.5H202"/>
				
					<line fill="none" stroke="#3E3E3E" stroke-width="5" stroke-linecap="round" stroke-linejoin="round" stroke-miterlimit="10" x1="243.917" y1="160.047" x2="234.218" y2="160.047"/>
				<path fill="#3E3E3E" d="M206.678,178.422h37.239c1.381,0,2.5,1.119,2.5,2.5s-1.119,2.5-2.5,2.5H208.75"/>
				<path fill="none" stroke="#3E3E3E" stroke-width="5" stroke-miterlimit="10" d="M333.75,210.682c0,3.979-3.225,7.199-7.2,7.199
					H54.284c-3.977,0-7.2-3.223-7.2-7.199V48.417c0-3.977,3.224-7.2,7.2-7.2H326.55c3.978,0,7.2,3.224,7.2,7.2v22.131V210.682z"/>
				<line fill="none" stroke="#3E3E3E" stroke-miterlimit="10" x1="47.083" y1="61.047" x2="333.75" y2="61.047"/>
				
					<line fill="none" stroke="#3E3E3E" stroke-width="5" stroke-linecap="round" stroke-miterlimit="10" x1="150.841" y1="20.687" x2="158.194" y2="40.853"/>
				
					<line fill="none" stroke="#3E3E3E" stroke-width="5" stroke-linecap="round" stroke-miterlimit="10" x1="218.658" y1="218.361" x2="226.012" y2="238.527"/>
				<polyline fill="none" stroke="#3E3E3E" stroke-miterlimit="10" points="150.841,19.723 170.223,75.893 225.173,236.48 				"/>
				
					<polyline fill="none" stroke="#3E3E3E" stroke-width="5" stroke-linecap="round" stroke-linejoin="round" stroke-miterlimit="10" points="
					170.223,75.893 63.417,75.893 63.417,202.047 243.917,202.047 				"/>
				
					<polyline fill="none" stroke="#3E3E3E" stroke-width="5" stroke-linecap="round" stroke-linejoin="round" stroke-miterlimit="10" points="
					171.251,75.893 243.917,75.893 243.917,140.047 192.357,140.047 				"/>
				
					<polyline fill="none" stroke="#3E3E3E" stroke-width="5" stroke-linecap="round" stroke-linejoin="round" stroke-miterlimit="10" points="
					63.417,75.893 191.417,140.047 63.417,202.047 				"/>
				
					<rect x="257.251" y="75.852" fill="none" stroke="#3E3E3E" stroke-width="5" stroke-linecap="round" stroke-linejoin="round" stroke-miterlimit="10" width="59.666" height="126.195"/>
				
					<line fill="none" stroke="#3E3E3E" stroke-width="5" stroke-linecap="round" stroke-linejoin="round" stroke-miterlimit="10" x1="257.251" y1="160.047" x2="316.917" y2="160.047"/>
				
					<path fill="none" stroke="#3E3E3E" stroke-width="5" stroke-linecap="round" stroke-linejoin="round" stroke-miterlimit="10" d="
					M214.384,202.047"/>
				<polyline fill="#FFFFFF" points="169.625,72.5 214.854,204.729 217.734,204.729 172.63,72.5 				"/>
			</g>
		</g>
	</g>
</g>
</svg>
