<?xml version="1.0" encoding="utf-8"?>
<!-- Generator: Adobe Illustrator 16.0.0, SVG Export Plug-In . SVG Version: 6.00 Build 0)  -->
<!DOCTYPE svg PUBLIC "-//W3C//DTD SVG 1.1//EN" "http://www.w3.org/Graphics/SVG/1.1/DTD/svg11.dtd">
<svg version="1.1" id="Layer_1" xmlns="http://www.w3.org/2000/svg" xmlns:xlink="http://www.w3.org/1999/xlink" x="0px" y="0px"
	 width="380px" height="260px" viewBox="0 0 380 260" enable-background="new 0 0 380 260" xml:space="preserve">
<polyline fill="#D8D8D8" points="171.251,77.922 242.084,77.922 242.084,138.048 191.669,138.048 "/>
<polyline fill="#B2B2B2" points="257.251,160.047 314.75,160.047 314.75,202.047 257.251,201.047 "/>
<line fill="none" stroke="#3E3E3E" stroke-width="5" stroke-linecap="round" stroke-linejoin="round" stroke-miterlimit="10" x1="225.173" y1="160.047" x2="199.26" y2="160.047"/>
<line fill="none" stroke="#3E3E3E" stroke-width="5" stroke-linecap="round" stroke-linejoin="round" stroke-miterlimit="10" x1="243.917" y1="160.047" x2="234.218" y2="160.047"/>
<line fill="none" stroke="#3E3E3E" stroke-width="5" stroke-linecap="round" stroke-linejoin="round" stroke-miterlimit="10" x1="243.917" y1="180.922" x2="206.678" y2="180.922"/>
<polyline fill="#B2B2B2" points="170.7,77.277 63.417,77.277 63.417,200.047 213.062,200.047 "/>
<polyline fill="#D8D8D8" points="65.417,78.297 188.007,140.047 65.417,200.047 "/>
<polyline fill="#B2B2B2" points="295.917,41.216 295.917,61.047 314.104,61.047 314.104,41.22 "/>
<polyline fill="#D8D8D8" points="277.729,40.966 277.729,60.797 295.917,60.797 295.917,40.97 "/>
<path fill="none" stroke="#3E3E3E" stroke-width="5" stroke-miterlimit="10" d="M333.75,210.682c0,3.977-3.224,7.199-7.2,7.199
	H54.284c-3.977,0-7.2-3.223-7.2-7.199V48.417c0-3.977,3.224-7.2,7.2-7.2H326.55c3.977,0,7.2,3.224,7.2,7.2v22.131V210.682z"/>
<line fill="none" stroke="#3E3E3E" stroke-miterlimit="10" x1="47.083" y1="61.047" x2="333.75" y2="61.047"/>
<path fill="#3E3E3E" d="M313.584,61.047V41.216l12.34,0.029c0,0,6.573,0.302,7.639,6.302l1.354,13.5H313.584z"/>
<line fill="none" stroke="#3E3E3E" stroke-width="5" stroke-linecap="round" stroke-miterlimit="10" x1="150.841" y1="20.687" x2="158.194" y2="40.853"/>
<line fill="none" stroke="#3E3E3E" stroke-width="5" stroke-linecap="round" stroke-miterlimit="10" x1="218.658" y1="218.361" x2="226.012" y2="238.527"/>
<polyline fill="none" stroke="#3E3E3E" stroke-miterlimit="10" points="150.841,19.723 170.223,75.893 225.173,236.48 "/>
<polyline fill="none" stroke="#3E3E3E" stroke-width="5" stroke-linecap="round" stroke-linejoin="round" stroke-miterlimit="10" points="
	170.223,75.893 63.417,75.893 63.417,202.047 214.384,202.047 "/>
<polyline fill="none" stroke="#3E3E3E" stroke-width="5" stroke-linecap="round" stroke-linejoin="round" stroke-miterlimit="10" points="
	171.251,75.893 243.917,75.893 243.917,140.047 192.358,140.047 "/>
<polyline fill="none" stroke="#3E3E3E" stroke-width="5" stroke-linecap="round" stroke-linejoin="round" stroke-miterlimit="10" points="
	63.417,75.893 191.417,140.047 63.417,202.047 "/>
<rect x="257.251" y="75.852" fill="none" stroke="#3E3E3E" stroke-width="5" stroke-linecap="round" stroke-linejoin="round" stroke-miterlimit="10" width="59.666" height="126.195"/>
<line fill="none" stroke="#3E3E3E" stroke-width="5" stroke-linecap="round" stroke-linejoin="round" stroke-miterlimit="10" x1="257.251" y1="160.047" x2="316.917" y2="160.047"/>
<line fill="none" stroke="#3E3E3E" stroke-width="5" stroke-linecap="round" stroke-linejoin="round" stroke-miterlimit="10" x1="214.384" y1="202.047" x2="221.084" y2="202.047"/>
<line fill="none" stroke="#3E3E3E" stroke-width="5" stroke-linecap="round" stroke-linejoin="round" stroke-miterlimit="10" x1="229.875" y1="202.047" x2="243.917" y2="202.047"/>
</svg>
