<?xml version="1.0" encoding="utf-8"?>
<!-- Generator: Adobe Illustrator 16.0.0, SVG Export Plug-In . SVG Version: 6.00 Build 0)  -->
<!DOCTYPE svg PUBLIC "-//W3C//DTD SVG 1.1//EN" "http://www.w3.org/Graphics/SVG/1.1/DTD/svg11.dtd">
<svg version="1.1" id="Layer_1" xmlns="http://www.w3.org/2000/svg" xmlns:xlink="http://www.w3.org/1999/xlink" x="0px" y="0px"
	 width="380px" height="260px" viewBox="0 0 380 260" enable-background="new 0 0 380 260" xml:space="preserve">
<polyline fill="#EEF9FE" stroke="#F4AC23" stroke-width="7" stroke-linecap="round" stroke-linejoin="round" stroke-miterlimit="10" points="
	162.087,33.25 331.489,33.25 331.489,206.502 204.438,206.502 "/>
<polygon fill="#EDD8BA" points="233.438,104.112 233.438,127.879 186.524,127.879 186.524,136.129 223.638,136.129 241.378,136.129 
	241.378,127.879 241.378,104.112 "/>
<polygon fill="#EDD8BA" points="310.751,89.178 310.751,186.865 202.868,186.865 202.868,191.934 318.298,191.934 318.298,190.416 
	318.298,186.865 318.298,89.178 "/>
<polyline fill="#EEF9FE" stroke="#3E3E3E" stroke-width="7" stroke-linecap="round" stroke-linejoin="round" stroke-miterlimit="10" points="
	204.085,206.502 48.513,206.502 48.513,33.25 162.087,33.25 "/>
<path fill="none" stroke="#FFFFFF" stroke-width="7" stroke-linecap="round" stroke-linejoin="round" stroke-miterlimit="10" d="
	M199.142,149.271"/>
<line fill="none" stroke="#3E3E3E" stroke-width="7" stroke-linecap="round" stroke-linejoin="round" stroke-miterlimit="10" x1="50.437" y1="61.484" x2="168.505" y2="61.484"/>
<circle fill="#F4AC23" cx="316.378" cy="47.238" r="6.432"/>
<circle fill="#F4AC23" cx="298.122" cy="47.237" r="6.433"/>
<circle fill="#F4AC23" cx="279.259" cy="47.237" r="6.433"/>
<line fill="none" stroke="#F4AC23" stroke-width="7" stroke-linecap="round" stroke-linejoin="round" stroke-miterlimit="10" x1="169.716" y1="61.484" x2="331.489" y2="61.484"/>
<polyline fill="none" stroke="#F4AC23" stroke-width="7" stroke-linecap="round" stroke-linejoin="round" stroke-miterlimit="10" points="
	174.788,85.52 309.946,85.52 309.946,183.398 199.813,183.398 "/>
<polyline fill="none" stroke="#F4AC23" stroke-width="7" stroke-linecap="round" stroke-linejoin="round" stroke-miterlimit="10" points="
	178.941,101.537 234.81,101.537 234.81,128.508 187.284,128.508 "/>
<line fill="none" stroke="#F4AC23" stroke-width="7" stroke-linecap="round" stroke-linejoin="round" stroke-miterlimit="10" x1="191.147" y1="142.189" x2="234.825" y2="142.189"/>
<line fill="none" stroke="#F4AC23" stroke-width="7" stroke-linecap="round" stroke-linejoin="round" stroke-miterlimit="10" x1="234.839" y1="168.482" x2="197.222" y2="168.482"/>
<line fill="none" stroke="#F4AC23" stroke-width="7" stroke-linecap="round" stroke-linejoin="round" stroke-miterlimit="10" x1="194.556" y1="155.846" x2="234.81" y2="155.846"/>
<rect x="51.975" y="64.9" fill="#C0DEF2" width="121.204" height="5.07"/>
<rect x="72.852" y="186.865" fill="#C0DEF2" width="127.083" height="5.068"/>
<line fill="none" stroke="#3E3E3E" stroke-width="7" stroke-linecap="round" stroke-linejoin="round" stroke-miterlimit="10" x1="155.427" y1="6.086" x2="211.927" y2="238.799"/>
<polyline fill="none" stroke="#3E3E3E" stroke-width="7" stroke-linecap="round" stroke-linejoin="round" stroke-miterlimit="10" points="
	174.712,85.52 68.429,85.52 68.429,183.398 198.478,183.398 "/>
<polyline fill="none" stroke="#3E3E3E" stroke-width="7" stroke-linecap="round" stroke-linejoin="round" stroke-miterlimit="10" points="
	68.429,86.414 187.301,137.373 69.48,183.398 "/>
<rect x="322.966" y="64.9" fill="#EDD8BA" width="5.068" height="138.27"/>
<polygon fill="#EDD8BA" points="328.034,69.97 328.034,64.9 173.298,64.9 174.616,69.97 "/>
<polyline fill="#C0DEF2" points="88.038,179.9 184.854,142.074 186.524,148.846 103.747,179.9 "/>
<polygon fill="#C0DEF2" points="178.04,137.213 71.903,91.735 71.903,98.421 171.12,139.926 "/>
<polygon fill="#C0DEF2" points="83.36,89.006 94.021,93.589 173.089,93.589 171.966,89.006 "/>
<polygon fill="#EDD8BA" points="296.522,105.109 296.522,168.211 249.608,168.211 249.608,176.461 286.722,176.461 304.462,176.461 
	304.462,168.211 304.462,105.109 "/>
<rect x="247.743" y="101.537" fill="none" stroke="#F4AC23" stroke-width="7" stroke-linecap="round" stroke-linejoin="round" stroke-miterlimit="10" width="48.779" height="66.946"/>
<line fill="none" stroke="#F4AC23" stroke-width="7" stroke-linecap="round" stroke-linejoin="round" stroke-miterlimit="10" x1="247.743" y1="147.301" x2="296.522" y2="147.301"/>
</svg>
